<mxfile host="Electron" agent="Mozilla/5.0 (Windows NT 10.0; Win64; x64) AppleWebKit/537.36 (KHTML, like Gecko) draw.io/26.2.2 Chrome/134.0.6998.178 Electron/35.1.2 Safari/537.36" version="26.2.2">
  <diagram name="Page-1" id="NrhfDVnfHIT24gGjdjQw">
    <mxGraphModel dx="937" dy="651" grid="1" gridSize="10" guides="1" tooltips="1" connect="1" arrows="1" fold="1" page="1" pageScale="1" pageWidth="850" pageHeight="1100" math="0" shadow="0">
      <root>
        <mxCell id="0" />
        <mxCell id="1" parent="0" />
        <mxCell id="__Ir6u58PjxImjg9jhxQ-17" style="edgeStyle=orthogonalEdgeStyle;rounded=0;orthogonalLoop=1;jettySize=auto;html=1;" edge="1" parent="1" source="__Ir6u58PjxImjg9jhxQ-1" target="__Ir6u58PjxImjg9jhxQ-14">
          <mxGeometry relative="1" as="geometry" />
        </mxCell>
        <mxCell id="__Ir6u58PjxImjg9jhxQ-1" value="Datasource 2000 - 2017" style="rounded=0;whiteSpace=wrap;html=1;" vertex="1" parent="1">
          <mxGeometry x="40" y="80" width="120" height="120" as="geometry" />
        </mxCell>
        <mxCell id="__Ir6u58PjxImjg9jhxQ-16" style="edgeStyle=orthogonalEdgeStyle;rounded=0;orthogonalLoop=1;jettySize=auto;html=1;entryX=0;entryY=0.5;entryDx=0;entryDy=0;" edge="1" parent="1" source="__Ir6u58PjxImjg9jhxQ-3" target="__Ir6u58PjxImjg9jhxQ-15">
          <mxGeometry relative="1" as="geometry" />
        </mxCell>
        <mxCell id="__Ir6u58PjxImjg9jhxQ-3" value="Datasource 2018 - now" style="rounded=0;whiteSpace=wrap;html=1;" vertex="1" parent="1">
          <mxGeometry x="40" y="240" width="120" height="120" as="geometry" />
        </mxCell>
        <mxCell id="__Ir6u58PjxImjg9jhxQ-19" style="edgeStyle=orthogonalEdgeStyle;rounded=0;orthogonalLoop=1;jettySize=auto;html=1;entryX=0;entryY=0.5;entryDx=0;entryDy=0;" edge="1" parent="1" source="__Ir6u58PjxImjg9jhxQ-14" target="__Ir6u58PjxImjg9jhxQ-18">
          <mxGeometry relative="1" as="geometry" />
        </mxCell>
        <mxCell id="__Ir6u58PjxImjg9jhxQ-14" value="Responses" style="rounded=0;whiteSpace=wrap;html=1;" vertex="1" parent="1">
          <mxGeometry x="200" y="80" width="120" height="120" as="geometry" />
        </mxCell>
        <mxCell id="__Ir6u58PjxImjg9jhxQ-20" style="edgeStyle=orthogonalEdgeStyle;rounded=0;orthogonalLoop=1;jettySize=auto;html=1;entryX=0;entryY=0.5;entryDx=0;entryDy=0;" edge="1" parent="1" source="__Ir6u58PjxImjg9jhxQ-15" target="__Ir6u58PjxImjg9jhxQ-18">
          <mxGeometry relative="1" as="geometry" />
        </mxCell>
        <mxCell id="__Ir6u58PjxImjg9jhxQ-15" value="Responses" style="rounded=0;whiteSpace=wrap;html=1;" vertex="1" parent="1">
          <mxGeometry x="200" y="240" width="120" height="120" as="geometry" />
        </mxCell>
        <mxCell id="__Ir6u58PjxImjg9jhxQ-22" style="edgeStyle=orthogonalEdgeStyle;rounded=0;orthogonalLoop=1;jettySize=auto;html=1;entryX=0;entryY=0.5;entryDx=0;entryDy=0;" edge="1" parent="1" source="__Ir6u58PjxImjg9jhxQ-18" target="__Ir6u58PjxImjg9jhxQ-21">
          <mxGeometry relative="1" as="geometry" />
        </mxCell>
        <mxCell id="__Ir6u58PjxImjg9jhxQ-18" value="Raw easy to look at database" style="rounded=0;whiteSpace=wrap;html=1;" vertex="1" parent="1">
          <mxGeometry x="400" y="160" width="120" height="120" as="geometry" />
        </mxCell>
        <mxCell id="__Ir6u58PjxImjg9jhxQ-30" style="edgeStyle=orthogonalEdgeStyle;rounded=0;orthogonalLoop=1;jettySize=auto;html=1;entryX=0;entryY=0.5;entryDx=0;entryDy=0;" edge="1" parent="1" source="__Ir6u58PjxImjg9jhxQ-21" target="__Ir6u58PjxImjg9jhxQ-24">
          <mxGeometry relative="1" as="geometry" />
        </mxCell>
        <mxCell id="__Ir6u58PjxImjg9jhxQ-21" value="Clean easy to look at database" style="rounded=0;whiteSpace=wrap;html=1;" vertex="1" parent="1">
          <mxGeometry x="560" y="160" width="120" height="120" as="geometry" />
        </mxCell>
        <mxCell id="__Ir6u58PjxImjg9jhxQ-24" value="Database for website" style="rounded=0;whiteSpace=wrap;html=1;" vertex="1" parent="1">
          <mxGeometry x="720" y="160" width="120" height="120" as="geometry" />
        </mxCell>
        <mxCell id="__Ir6u58PjxImjg9jhxQ-36" style="edgeStyle=orthogonalEdgeStyle;rounded=0;orthogonalLoop=1;jettySize=auto;html=1;exitX=0;exitY=0.5;exitDx=0;exitDy=0;entryX=1;entryY=0;entryDx=0;entryDy=0;" edge="1" parent="1" source="__Ir6u58PjxImjg9jhxQ-31" target="__Ir6u58PjxImjg9jhxQ-24">
          <mxGeometry relative="1" as="geometry" />
        </mxCell>
        <mxCell id="__Ir6u58PjxImjg9jhxQ-31" value="Optimized for judges" style="ellipse;whiteSpace=wrap;html=1;" vertex="1" parent="1">
          <mxGeometry x="880" y="90" width="120" height="80" as="geometry" />
        </mxCell>
        <mxCell id="__Ir6u58PjxImjg9jhxQ-34" style="edgeStyle=orthogonalEdgeStyle;rounded=0;orthogonalLoop=1;jettySize=auto;html=1;exitX=0;exitY=0.5;exitDx=0;exitDy=0;entryX=1;entryY=1;entryDx=0;entryDy=0;" edge="1" parent="1" source="__Ir6u58PjxImjg9jhxQ-32" target="__Ir6u58PjxImjg9jhxQ-24">
          <mxGeometry relative="1" as="geometry" />
        </mxCell>
        <mxCell id="__Ir6u58PjxImjg9jhxQ-32" value="Optimized for couples" style="ellipse;whiteSpace=wrap;html=1;" vertex="1" parent="1">
          <mxGeometry x="880" y="270" width="120" height="80" as="geometry" />
        </mxCell>
        <mxCell id="__Ir6u58PjxImjg9jhxQ-35" style="edgeStyle=orthogonalEdgeStyle;rounded=0;orthogonalLoop=1;jettySize=auto;html=1;exitX=0;exitY=0.5;exitDx=0;exitDy=0;entryX=1;entryY=0.5;entryDx=0;entryDy=0;" edge="1" parent="1" source="__Ir6u58PjxImjg9jhxQ-33" target="__Ir6u58PjxImjg9jhxQ-24">
          <mxGeometry relative="1" as="geometry" />
        </mxCell>
        <mxCell id="__Ir6u58PjxImjg9jhxQ-33" value="General" style="ellipse;whiteSpace=wrap;html=1;" vertex="1" parent="1">
          <mxGeometry x="880" y="180" width="120" height="80" as="geometry" />
        </mxCell>
        <mxCell id="__Ir6u58PjxImjg9jhxQ-37" value="Schemas" style="text;html=1;align=center;verticalAlign=middle;resizable=0;points=[];autosize=1;strokeColor=none;fillColor=none;" vertex="1" parent="1">
          <mxGeometry x="900" y="10" width="70" height="30" as="geometry" />
        </mxCell>
        <mxCell id="__Ir6u58PjxImjg9jhxQ-39" style="edgeStyle=orthogonalEdgeStyle;rounded=0;orthogonalLoop=1;jettySize=auto;html=1;entryX=0.5;entryY=1;entryDx=0;entryDy=0;" edge="1" parent="1" source="__Ir6u58PjxImjg9jhxQ-38" target="__Ir6u58PjxImjg9jhxQ-24">
          <mxGeometry relative="1" as="geometry" />
        </mxCell>
        <mxCell id="__Ir6u58PjxImjg9jhxQ-38" value="Bussines" style="ellipse;whiteSpace=wrap;html=1;" vertex="1" parent="1">
          <mxGeometry x="880" y="360" width="120" height="80" as="geometry" />
        </mxCell>
        <mxCell id="__Ir6u58PjxImjg9jhxQ-40" value="Saved" style="text;html=1;align=center;verticalAlign=middle;resizable=0;points=[];autosize=1;strokeColor=none;fillColor=none;" vertex="1" parent="1">
          <mxGeometry x="500" y="10" width="60" height="30" as="geometry" />
        </mxCell>
        <mxCell id="__Ir6u58PjxImjg9jhxQ-41" value="" style="endArrow=none;html=1;rounded=0;" edge="1" parent="1">
          <mxGeometry width="50" height="50" relative="1" as="geometry">
            <mxPoint x="200" y="40" as="sourcePoint" />
            <mxPoint x="840" y="40" as="targetPoint" />
          </mxGeometry>
        </mxCell>
        <mxCell id="__Ir6u58PjxImjg9jhxQ-42" value="Datasource" style="text;html=1;align=center;verticalAlign=middle;resizable=0;points=[];autosize=1;strokeColor=none;fillColor=none;" vertex="1" parent="1">
          <mxGeometry x="60" y="20" width="80" height="30" as="geometry" />
        </mxCell>
      </root>
    </mxGraphModel>
  </diagram>
</mxfile>
